{
  "accessors": [
    {
      "bufferView": 2,
      "componentType": 5126,
      "count": 4877,
      "max": [
        1.106644630432129,
        1.7998623847961426,
        2.4798152446746826
      ],
      "min": [
        -1.106644630432129,
        -0.41120466589927673,
        -2.0926220417022705
      ],
      "type": "VEC3"
    },
    {
      "bufferView": 2,
      "byteOffset": 58524,
      "componentType": 5126,
      "count": 4877,
      "max": [
        1.0,
        1.0,
        1.0
      ],
      "min": [
        -1.0,
        -1.0,
        -1.0
      ],
      "type": "VEC3"
    },
    {
      "bufferView": 1,
      "componentType": 5126,
      "count": 4877,
      "max": [
        0.9498335123062134,
        0.9080836772918701
      ],
      "min": [
        0.03693016991019249,
        0.010607719421386719
      ],
      "type": "VEC2"
    },
    {
      "bufferView": 0,
      "componentType": 5125,
      "count": 13299,
      "type": "SCALAR"
    },
    {
      "bufferView": 2,
      "byteOffset": 117048,
      "componentType": 5126,
      "count": 50,
      "max": [
        1.1089859008789063,
        0.6003099083900452,
        -0.802750825881958
      ],
      "min": [
        -1.1089859008789063,
        -0.013476938009262085,
        -2.3469715118408203
      ],
      "type": "VEC3"
    },
    {
      "bufferView": 2,
      "byteOffset": 117648,
      "componentType": 5126,
      "count": 50,
      "max": [
        1.0,
        1.0,
        1.0
      ],
      "min": [
        -1.0,
        -1.0,
        -1.0
      ],
      "type": "VEC3"
    },
    {
      "bufferView": 1,
      "byteOffset": 39016,
      "componentType": 5126,
      "count": 50,
      "max": [
        0.4562850594520569,
        0.6106077432632446
      ],
      "min": [
        0.4562850594520569,
        0.6106077432632446
      ],
      "type": "VEC2"
    },
    {
      "bufferView": 0,
      "byteOffset": 53196,
      "componentType": 5125,
      "count": 84,
      "type": "SCALAR"
    },
    {
      "bufferView": 2,
      "byteOffset": 118248,
      "componentType": 5126,
      "count": 40,
      "max": [
        0.7441322207450867,
        1.7708778381347656,
        -0.09025788307189941
      ],
      "min": [
        -0.7366625666618347,
        1.6455810070037842,
        -0.3028741180896759
      ],
      "type": "VEC3"
    },
    {
      "bufferView": 2,
      "byteOffset": 118728,
      "componentType": 5126,
      "count": 40,
      "max": [
        0.9212456941604614,
        1.0,
        0.9921581745147705
      ],
      "min": [
        -0.9212456941604614,
        -1.0,
        -0.9921581745147705
      ],
      "type": "VEC3"
    },
    {
      "bufferView": 1,
      "byteOffset": 39416,
      "componentType": 5126,
      "count": 40,
      "max": [
        0.640156090259552,
        0.587530791759491
      ],
      "min": [
        0.25951087474823,
        0.5644538998603821
      ],
      "type": "VEC2"
    },
    {
      "bufferView": 0,
      "byteOffset": 53532,
      "componentType": 5125,
      "count": 60,
      "type": "SCALAR"
    }
  ],
  "asset": {
    "extras": {
      "author": "A_Aalah (https://sketchfab.com/abdosalah513)",
      "license": "CC-BY-4.0 (http://creativecommons.org/licenses/by/4.0/)",
      "source": "https://sketchfab.com/3d-models/police-car-cf0bf5c04fcc45c0af886562c90de317",
      "title": "Police car"
    },
    "generator": "Sketchfab-12.67.0",
    "version": "2.0"
  },
  "bufferViews": [
    {
      "buffer": 0,
      "byteLength": 53772,
      "name": "floatBufferViews",
      "target": 34963
    },
    {
      "buffer": 0,
      "byteLength": 39736,
      "byteOffset": 53772,
      "byteStride": 8,
      "name": "floatBufferViews",
      "target": 34962
    },
    {
      "buffer": 0,
      "byteLength": 119208,
      "byteOffset": 93508,
      "byteStride": 12,
      "name": "floatBufferViews",
      "target": 34962
    }
  ],
  "buffers": [
    {
      "byteLength": 212716,
      "uri": "scene.bin"
    }
  ],
  "extensionsUsed": [
    "KHR_materials_clearcoat"
  ],
  "images": [
    {
      "uri": "textures/Material_baseColor.jpeg"
    }
  ],
  "materials": [
    {
      "doubleSided": true,
      "extensions": {
        "KHR_materials_clearcoat": {
          "clearcoatFactor": 0.22059628258212793,
          "clearcoatRoughnessFactor": 0.06251178033550396
        }
      },
      "name": "Material",
      "pbrMetallicRoughness": {
        "baseColorTexture": {
          "index": 0
        },
        "metallicFactor": 0.186364,
        "roughnessFactor": 0.24491697523545472
      }
    }
  ],
  "meshes": [
    {
      "name": "Object_0",
      "primitives": [
        {
          "attributes": {
            "NORMAL": 1,
            "POSITION": 0,
            "TEXCOORD_0": 2
          },
          "indices": 3,
          "material": 0,
          "mode": 4
        }
      ]
    },
    {
      "name": "Object_1",
      "primitives": [
        {
          "attributes": {
            "NORMAL": 5,
            "POSITION": 4,
            "TEXCOORD_0": 6
          },
          "indices": 7,
          "material": 0,
          "mode": 4
        }
      ]
    },
    {
      "name": "Object_2",
      "primitives": [
        {
          "attributes": {
            "NORMAL": 9,
            "POSITION": 8,
            "TEXCOORD_0": 10
          },
          "indices": 11,
          "material": 0,
          "mode": 4
        }
      ]
    }
  ],
  "nodes": [
    {
      "children": [
        1
      ],
      "matrix": [
        0.26258730993592216,
        1.2531963121503936e-16,
        -0.5643894444422592,
        0.0,
        -0.5643894444422592,
        5.830609549304859e-17,
        -0.26258730993592216,
        0.0,
        0.0,
        0.6224849820137024,
        1.3821943190299777e-16,
        0.0,
        -0.1827794462442398,
        -2.4424310508491263e-16,
        0.0999731570482254,
        1.0
      ],
      "name": "Sketchfab_model"
    },
    {
      "children": [
        2
      ],
      "name": "root"
    },
    {
      "children": [
        3,
        5,
        7
      ],
      "matrix": [
        1.0,
        0.0,
        0.0,
        0.0,
        0.0,
        2.220446049250313e-16,
        1.0,
        0.0,
        0.0,
        -1.0,
        2.220446049250313e-16,
        0.0,
        0.0,
        0.0,
        0.0,
        1.0
      ],
      "name": "GLTF_SceneRootNode"
    },
    {
      "children": [
        4
      ],
      "name": "Cube_0"
    },
    {
      "mesh": 0,
      "name": "Object_4"
    },
    {
      "children": [
        6
      ],
      "matrix": [
        0.29117703437805176,
        0.0,
        0.0,
        0.0,
        0.0,
        0.1430939882993698,
        0.0,
        0.0,
        0.0,
        0.0,
        0.2744692265987396,
        0.0,
        0.0,
        0.3501311242580414,
        1.5632628202438354,
        1.0
      ],
      "name": "Cube.001_1"
    },
    {
      "mesh": 1,
      "name": "Object_6"
    },
    {
      "children": [
        8
      ],
      "name": "Cube.002_2"
    },
    {
      "mesh": 2,
      "name": "Object_8"
    }
  ],
  "samplers": [
    {
      "magFilter": 9729,
      "minFilter": 9987,
      "wrapS": 10497,
      "wrapT": 10497
    }
  ],
  "scene": 0,
  "scenes": [
    {
      "name": "Sketchfab_Scene",
      "nodes": [
        0
      ]
    }
  ],
  "textures": [
    {
      "sampler": 0,
      "source": 0
    }
  ]
}
